<svg width="633" height="133" viewBox="0 0 633 133" fill="none" xmlns="http://www.w3.org/2000/svg">
<path d="M418.89 10.37L437.61 0.369995V99.37H418.89V10.37Z" fill="#323232"/>
<path d="M0 93.39C3.78319 95.7068 7.91673 97.3953 12.24 98.39C17.3882 99.7153 22.684 100.381 28 100.37C33.5725 100.479 39.1197 99.5921 44.38 97.75C48.4949 96.3692 52.1351 93.8522 54.88 90.49C57.2595 87.4429 58.5293 83.6758 58.48 79.81C58.48 75.1433 57.24 71.4767 54.76 68.81C52.3844 66.235 49.358 64.3487 46 63.35C41.7272 62.1497 37.386 61.208 33 60.53C29.4837 60.0916 26.0155 59.3284 22.64 58.25C20.48 57.45 19.4 56.05 19.4 54.05C19.4 52.29 20.4 50.85 22.4 49.73C24.4 48.61 27.4 48.05 31.4 48.05C37.913 47.9963 44.3263 49.6514 50 52.85L56.26 39.53C52.7615 37.5675 48.9748 36.1703 45.04 35.39C40.5682 34.3953 36.0011 33.8923 31.42 33.89C25.9693 33.773 20.5442 34.6681 15.42 36.53C11.3505 37.9631 7.77173 40.5224 5.10001 43.91C2.72963 47.0413 1.46999 50.873 1.52 54.8C1.52 59.6533 2.78 63.4133 5.3 66.08C7.74364 68.673 10.827 70.5769 14.24 71.6C18.5306 72.8225 22.9012 73.7448 27.32 74.36C30.7149 74.6696 34.0671 75.3401 37.32 76.36C39.48 77.1866 40.56 78.52 40.56 80.36C40.56 84.28 36.6 86.24 28.68 86.24C24.6186 86.2197 20.5799 85.6341 16.68 84.5C13.0002 83.5143 9.48331 81.9984 6.24001 80L0 93.39Z" fill="#323232"/>
<path d="M66 69.65C66 79.33 68.8733 86.93 74.62 92.45C80.3733 97.97 88.3967 100.73 98.69 100.73C108.937 100.73 116.937 97.97 122.69 92.45C128.443 86.93 131.32 79.33 131.32 69.65V34.85H112.61V69.05C112.61 74.41 111.44 78.45 109.13 81.17C106.803 83.89 103.4 85.25 98.92 85.25C94.3733 85.2767 90.9167 83.9167 88.55 81.17C86.1833 78.4233 85 74.3833 85 69.05V34.85H66V69.65Z" fill="#323232"/>
<path fill-rule="evenodd" clip-rule="evenodd" d="M194 38C198.876 40.7161 202.889 44.7499 205.58 49.64C208.341 55.0461 209.78 61.0298 209.78 67.1C209.78 73.1702 208.341 79.1539 205.58 84.56C202.894 89.4612 198.88 93.5058 194 96.23C188.993 99.0123 183.347 100.439 177.62 100.37C169.38 100.37 162.9 97.77 158.18 92.57V122.69L139.46 132.69V34.85H157.34V42.29C162.007 36.69 168.767 33.89 177.62 33.89C183.345 33.8115 188.991 35.2281 194 38ZM186.2 80.12C189.28 76.88 190.82 72.5467 190.82 67.12C190.82 61.6933 189.28 57.36 186.2 54.12C183.054 51.0056 178.807 49.2585 174.38 49.2585C169.953 49.2585 165.706 51.0056 162.56 54.12C159.48 57.36 157.94 61.6933 157.94 67.12C157.94 72.5467 159.48 76.88 162.56 80.12C165.706 83.2344 169.953 84.9815 174.38 84.9815C178.807 84.9815 183.054 83.2344 186.2 80.12Z" fill="#323232"/>
<path fill-rule="evenodd" clip-rule="evenodd" d="M233.16 72.41H282C282.24 69.29 282.367 67.61 282.38 67.37C282.515 61.1861 281.003 55.0775 278 49.67C275.176 44.6946 270.983 40.634 265.92 37.97C260.526 35.2574 254.566 33.8596 248.528 33.8909C242.491 33.9222 236.546 35.3816 231.18 38.15C226.042 40.8924 221.764 45.0044 218.82 50.03C215.792 55.2145 214.237 61.1268 214.32 67.13C214.217 73.1625 215.796 79.1046 218.88 84.29C221.993 89.3929 226.505 93.4953 231.88 96.11C237.89 99.0441 244.513 100.504 251.2 100.37C262.88 100.37 271.76 96.89 277.84 89.93L267.84 79.13C265.761 81.1791 263.292 82.7908 260.58 83.87C257.718 84.9154 254.687 85.424 251.64 85.37C247.295 85.5287 243.011 84.3108 239.4 81.89C236.172 79.6564 233.935 76.2583 233.16 72.41ZM232.92 61.49C233.38 57.6628 235.265 54.1495 238.2 51.65C241.21 49.2024 245.003 47.924 248.88 48.05C252.728 47.9427 256.483 49.2442 259.44 51.71C262.35 54.204 264.231 57.6888 264.72 61.49H232.92Z" fill="#323232"/>
<path d="M317.78 36.29C321.955 34.6194 326.424 33.8034 330.92 33.89V51.17C328.84 51.01 327.44 50.93 326.72 50.93C321.387 50.93 317.187 52.43 314.12 55.43C311.053 58.43 309.533 62.93 309.56 68.93V99.41H290.84V34.85H308.72V43.37C311.016 40.2063 314.155 37.7527 317.78 36.29Z" fill="#323232"/>
<path fill-rule="evenodd" clip-rule="evenodd" d="M405.8 49.64C403.109 44.7499 399.096 40.7161 394.22 38C389.211 35.2281 383.565 33.8115 377.84 33.89C368.987 33.89 362.227 36.69 357.56 42.29V34.85H339.68V132.66L358.4 122.66V92.54C363.12 97.74 369.6 100.34 377.84 100.34C383.567 100.409 389.213 98.9823 394.22 96.2C399.096 93.484 403.109 89.4501 405.8 84.56C408.561 79.1539 410 73.1702 410 67.1C410 61.0298 408.561 55.0461 405.8 49.64ZM391.04 67.12C391.04 72.5467 389.5 76.88 386.42 80.12C383.274 83.2344 379.027 84.9815 374.6 84.9815C370.173 84.9815 365.926 83.2344 362.78 80.12C359.7 76.88 358.16 72.5467 358.16 67.12C358.16 61.6933 359.7 57.36 362.78 54.12C365.926 51.0056 370.173 49.2585 374.6 49.2585C379.027 49.2585 383.274 51.0056 386.42 54.12C389.5 57.36 391.04 61.6933 391.04 67.12Z" fill="#323232"/>
<path fill-rule="evenodd" clip-rule="evenodd" d="M515 99.41V34.85L496.29 34.88V41.72C491.65 36.52 485.21 33.92 476.97 33.92C471.211 33.8398 465.528 35.245 460.47 38C455.571 40.7038 451.552 44.7579 448.89 49.68C446.136 55.1023 444.7 61.0982 444.7 67.18C444.7 73.2618 446.136 79.2577 448.89 84.68C451.558 89.5874 455.576 93.627 460.47 96.32C465.528 99.075 471.211 100.48 476.97 100.4C485.743 100.4 492.463 97.6 497.13 92V99.41H515ZM496.68 67.15C496.68 72.5767 495.12 76.91 492 80.15C488.854 83.2644 484.607 85.0115 480.18 85.0115C475.753 85.0115 471.506 83.2644 468.36 80.15C465.24 76.91 463.68 72.5767 463.68 67.15C463.68 61.7233 465.24 57.39 468.36 54.15C471.506 51.0356 475.753 49.2885 480.18 49.2885C484.607 49.2885 488.854 51.0356 492 54.15C495.12 57.39 496.68 61.7233 496.68 67.15Z" fill="#323232"/>
<path d="M565.17 96.29C563.131 97.7413 560.828 98.7808 558.39 99.35C555.662 100.029 552.861 100.365 550.05 100.35C542.29 100.35 536.33 98.39 532.17 94.47C528.01 90.55 525.93 84.79 525.93 77.19V20.37L544.65 10.37V36.29H560.65V50.69H544.65V77C544.494 79.2777 545.208 81.5297 546.65 83.3C547.415 84.0685 548.335 84.6643 549.349 85.0472C550.364 85.4302 551.448 85.5914 552.53 85.52C555.281 85.5607 557.972 84.7196 560.21 83.12L565.17 96.29Z" fill="#323232"/>
<path fill-rule="evenodd" clip-rule="evenodd" d="M583.05 72.41H631.89C632.13 69.29 632.25 67.61 632.25 67.37C632.385 61.1861 630.873 55.0775 627.87 49.67C625.054 44.6953 620.868 40.6343 615.81 37.97C610.416 35.2574 604.456 33.8596 598.418 33.8909C592.381 33.9222 586.436 35.3816 581.07 38.15C575.932 40.8924 571.654 45.0044 568.71 50.03C565.682 55.2145 564.127 61.1268 564.21 67.13C564.107 73.1625 565.686 79.1046 568.77 84.29C571.883 89.3929 576.395 93.4953 581.77 96.11C587.781 99.043 594.403 100.503 601.09 100.37C612.77 100.37 621.65 96.89 627.73 89.93L617.73 79.13C615.654 81.1834 613.185 82.7957 610.47 83.87C607.608 84.9154 604.577 85.424 601.53 85.37C597.186 85.526 592.903 84.3083 589.29 81.89C586.062 79.6564 583.825 76.2583 583.05 72.41ZM582.81 61.49C583.27 57.6628 585.156 54.1495 588.09 51.65C591.101 49.204 594.893 47.9259 598.77 48.05C602.618 47.9427 606.373 49.2442 609.33 51.71C612.237 54.2064 614.118 57.69 614.61 61.49H582.81Z" fill="#323232"/>
</svg>
